/* XPM */
char * xpm_cursor_move[] = {
"16 16 3 1",
" 	c None",
".	c #000000",
"+	c #FFFFFF",
" ...            ",
" .++.           ",
" .++.           ",
"  .++.....      ",
"  .++.++.+...   ",
"   .++.++.+.+.  ",
"   .++++++++++. ",
" ....++++.++++. ",
".++..+++...+++. ",
".++++++.+.+.++. ",
" ..+++.......+. ",
"   ..++.+.+.++. ",
"     .++...+++  ",
"      .++.+++   ",
"       .++++    ",
"                "};
