/* XPM */
const char* chb_icon_corner_half[] = {
"16 16 22 1",
" 	c None",
".	c #A7A7A7",
"+	c #1CC900",
"@	c #1BC600",
"#	c #20C600",
"$	c #24C400",
"%	c #1FC100",
"&	c #000000",
"*	c #24BF00",
"=	c #27BC00",
"-	c #26B700",
";	c #25AF00",
">	c #24AC00",
",	c #27A900",
"'	c #249900",
")	c #208900",
"!	c #238900",
"~	c #1E7F00",
"{	c #1F7A00",
"]	c #196E00",
"^	c #1C6E00",
"/	c #1A6700",
"                ",
"                ",
"     ......     ",
"    .++@@#.     ",
"   .$$$%&&      ",
"  .**=*=&       ",
"  .-;--&&       ",
"  .>,>>&        ",
"  .''''&&       ",
"  .))))!&       ",
"   .~~~{&&      ",
"    &]]^^/&     ",
"     &&&&&&     ",
"                ",
"                ",
"                "};
