/* XPM */
const char *chb_icon_default_module[] = {
"16 16 5 1",
" 	c None",
".	c #FFFDBF",
"+	c #FFCB00",
"@	c #473800",
"#	c #1D7600",
"                ",
"  ............  ",
"  .++++++++++@  ",
"  .+########+@  ",
"  .++++++++++@  ",
"  .+########+@  ",
"  .++++++++++@  ",
"  .+########+@  ",
"  .++++++++++@  ",
"  .+++++####+@  ",
"  ....@++++++@  ",
"  .+++@+####+@  ",
"   .++@++++++@  ",
"    .+@++++++@  ",
"     @@@@@@@@@  ",
"                "};
