/* XPM */
const char *chb_icon_english[] = {
"16 16 3 1",
" 	c None",
".	c #000000",
"+	c #FFFFFF",
"                ",
"                ",
"     .....      ",
"     .+++.      ",
"    ..+++..     ",
"    .++.++.     ",
"    .++.++.     ",
"   ..++.++..    ",
"   .++...++.    ",
"  ..+++++++..   ",
"  .++.....++.   ",
"  .++.   .++.   ",
"  .++.   .++.   ",
"  ....   ....   ",
"                ",
"                "};
