/* XPM */
const char *chb_icon_japanese[] = {
"16 16 65 1",
" 	c None",
".	c #FF7171",
"+	c #EB0707",
"@	c #FB3A3A",
"#	c #FF6565",
"$	c #FF8F8F",
"%	c #FF5A5A",
"&	c #F72323",
"*	c #D70000",
"=	c #ED0A0A",
"-	c #D30000",
";	c #F82A2A",
">	c #605D5D",
",	c #EB0606",
"'	c #DE0000",
")	c #FFA6A6",
"!	c #FA3737",
"~	c #F11010",
"{	c #F41818",
"]	c #F51B1B",
"^	c #C40000",
"/	c #FF7D7D",
"(	c #FF7474",
"_	c #E00101",
":	c #F92E2E",
"<	c #CF0000",
"[	c #FF6262",
"}	c #FF9595",
"|	c #DF0000",
"1	c #FF9999",
"2	c #F72626",
"3	c #FA3333",
"4	c #F21212",
"5	c #F00E0E",
"6	c #F82C2C",
"7	c #F62222",
"8	c #E80404",
"9	c #FE5353",
"0	c #E30202",
"a	c #FF7A7A",
"b	c #D00000",
"c	c #F93232",
"d	c #FF7676",
"e	c #F41919",
"f	c #FC4545",
"g	c #F51C1C",
"h	c #FFA2A2",
"i	c #FA3434",
"j	c #FF9393",
"k	c #FE5151",
"l	c #F00F0F",
"m	c #FFABAB",
"n	c #D40000",
"o	c #FF9F9F",
"p	c #EE0A0A",
"q	c #FD4A4A",
"r	c #EE0B0B",
"s	c #FFA8A8",
"t	c #E50202",
"u	c #F11111",
"v	c #DC0000",
"w	c #C50000",
"x	c #FD4E4E",
"y	c #FE5757",
"z	c #FF6F6F",
"                ",
"    .+@   #$    ",
" %&*=-;>  ,')   ",
"  !>~{>>  ]^/>  ",
"   (_>>   :<[>  ",
"  }|1>    234>  ",
"  56>>    7}89  ",
"  0>>     7#ab> ",
"  ,>      cd>e> ",
" fg>     hij> > ",
" kl>     i3>>   ",
" mn>    opq>    ",
"  5r   st{>>    ",
"   u-rvwx>>     ",
"    syz>>>      ",
"     >>>        "};
