/* XPM */
const char *chb_icon_korean[] = {
"16 16 3 1",
" 	c None",
".	c #0000FF",
"+	c #605D5D",
"                ",
"         ..     ",
"          .+    ",
"          .+    ",
" .......  .+    ",
"  .++++.+ .+    ",
"   +  ..+ .+    ",
"      .++ .+ .  ",
"     ..+  ..... ",
"    ..++  .+++++",
"   ..++   .+    ",
" ...++    .+    ",
" .+++    ..+    ",
"  +       .+    ",
"           +    ",
"                "};
