/* XPM */
const char * chb_icon_mail[] = {
"16 16 102 2",
"  	c None",
". 	c #898989",
"+ 	c #8C8C8C",
"@ 	c #A8A8A8",
"# 	c #C7C7C7",
"$ 	c #CCCCCC",
"% 	c #D6D6D6",
"& 	c #DCDCDC",
"* 	c #E0E0E0",
"= 	c #E5E5E5",
"- 	c #E9E9E9",
"; 	c #EEEEEE",
"> 	c #F1F1F1",
", 	c #F2F2F2",
"' 	c #F4F4F4",
") 	c #EDEDED",
"! 	c #FFFFFF",
"~ 	c #FEFEFE",
"{ 	c #FCFCFC",
"] 	c #FAFAFA",
"^ 	c #F7F7F7",
"/ 	c #F5F5F5",
"( 	c #EFEFEF",
"_ 	c #ECECEC",
": 	c #DFDFDF",
"< 	c #838383",
"[ 	c #494949",
"} 	c #595959",
"| 	c #9C9C9C",
"1 	c #BFBFBF",
"2 	c #F6F6F6",
"3 	c #E2E2E2",
"4 	c #D1D1D1",
"5 	c #616161",
"6 	c #656565",
"7 	c #4A4A4A",
"8 	c #555555",
"9 	c #B6B6B6",
"0 	c #E6E6E6",
"a 	c #B0B0B0",
"b 	c #9E9E9E",
"c 	c #B2B2B2",
"d 	c #DEDEDE",
"e 	c #D9D9D9",
"f 	c #C1C1C1",
"g 	c #5C5C5C",
"h 	c #5F5F5F",
"i 	c #9D9D9D",
"j 	c #696969",
"k 	c #505050",
"l 	c #939393",
"m 	c #F8F8F8",
"n 	c #F0F0F0",
"o 	c #DBDBDB",
"p 	c #A3A3A3",
"q 	c #777777",
"r 	c #979797",
"s 	c #C3C3C3",
"t 	c #D7D7D7",
"u 	c #B8B8B8",
"v 	c #626262",
"w 	c #8F8F8F",
"x 	c #B3B3B3",
"y 	c #7F7F7F",
"z 	c #444444",
"A 	c #EBEBEB",
"B 	c #C9C9C9",
"C 	c #A4A4A4",
"D 	c #8E8E8E",
"E 	c #717171",
"F 	c #969696",
"G 	c #ACACAC",
"H 	c #BDBDBD",
"I 	c #414141",
"J 	c #E8E8E8",
"K 	c #BCBCBC",
"L 	c #C4C4C4",
"M 	c #CACACA",
"N 	c #A7A7A7",
"O 	c #C8C8C8",
"P 	c #D5D5D5",
"Q 	c #E4E4E4",
"R 	c #DADADA",
"S 	c #D2D2D2",
"T 	c #CECECE",
"U 	c #C5C5C5",
"V 	c #E1E1E1",
"W 	c #A1A1A1",
"X 	c #878787",
"Y 	c #5D5D5D",
"Z 	c #434343",
"` 	c #B7B7B7",
" .	c #929292",
"..	c #6D6D6D",
"+.	c #4D4D4D",
"@.	c #474747",
"#.	c #CBCBCB",
"$.	c #888888",
"%.	c #404040",
"&.	c #535353",
"*.	c #545454",
"=.	c #5A5A5A",
"                    . + .       ",
"@ # $ % & * = - ; > , ' ' ,     ",
") ! ! ~ { ] ^ / , ( _ - : < [ } ",
"| 1 : 2 / > ( _ - = 3 4 5 6 7 8 ",
"9 0 a b c d - 3 d e f g h i j k ",
"l m n o p q r s t u v v w x y z ",
"  m ( A : 9 B C D E F G p H b I ",
"  J ; J d e 3 t $ K L M s N i I ",
"  O ) = P Q R % S T M U 1 9 y [ ",
"  @ ( t V R P S $ U u W X Y 7 Z ",
"  D A t d 4 O `  ...+.[ @.8 Y   ",
"    #.$ N $.g %.7 &.Y           ",
"      *.7 k =.5                 ",
"                                ",
"                                ",
"                                "};
