/* XPM */
const char* chb_icon_punct_en[] = {
"16 16 2 1",
" 	c None",
".	c #197016",
"                ",
"                ",
"                ",
"                ",
"    ...         ",
"    ...         ",
"    ...         ",
"                ",
"                ",
"         ..     ",
"          .     ",
"          .     ",
"         .      ",
"                ",
"                ",
"                "};
