/* XPM */
char * xpm_yes[] = {
"17 17 60 1",
" 	c None",
".	c #E1E1E9",
"+	c #030408",
"@	c #0B0C0E",
"#	c #000002",
"$	c #BCBEBD",
"%	c #6C6E6B",
"&	c #040603",
"*	c #000300",
"=	c #9DA29C",
"-	c #727770",
";	c #000200",
">	c #020806",
",	c #9EA59E",
"'	c #71776D",
")	c #000009",
"!	c #050811",
"~	c #000600",
"{	c #8C968D",
"]	c #5E665B",
"^	c #020A00",
"/	c #0E0E18",
"(	c #B0B0BA",
"_	c #787B82",
":	c #00080A",
"<	c #000400",
"[	c #828C84",
"}	c #747E75",
"|	c #000500",
"1	c #A1A1AB",
"2	c #9C9FA4",
"3	c #030F05",
"4	c #828E84",
"5	c #647066",
"6	c #000000",
"7	c #9B9FA2",
"8	c #879387",
"9	c #000F00",
"0	c #000E00",
"a	c #4D5B4C",
"b	c #768276",
"c	c #9A9E9F",
"d	c #8B9886",
"e	c #75876D",
"f	c #000800",
"g	c #748572",
"h	c #5F6D60",
"i	c #A7B69F",
"j	c #889B7B",
"k	c #63765A",
"l	c #6E806A",
"m	c #9CB28C",
"n	c #6C7F5F",
"o	c #576951",
"p	c #000B00",
"q	c #8D9D82",
"r	c #889780",
"s	c #031000",
"t	c #0D1311",
"u	c #767C7A",
"            .    ",
"            +@   ",
"           #$%&  ",
"           *=-;  ",
"          >,'*   ",
"    )!    ~{]^   ",
"   /(_:  <[}|    ",
"    12<| 3456    ",
"    )7890ab<6    ",
"    6cdefgh6     ",
"     6ijkl 6     ",
"      fmno6      ",
"      pqrs6      ",
"       tu6       ",
"        6        ",
"                 ",
"                 "};
