/* XPM */
const char *chb_icon_chinese[] = {
"16 16 3 1",
" 	c Non ",
"q	c #54490a",
"w	c #deaf0d",
"       w        ",
"       wq       ",
"       wq       ",
"  wwwwwwwwwww   ",
"  wqqqqwqqqqwq  ",
"  wq   wq   wq  ",
"  wq   wq   wq  ",
"  wq   wq   wq  ",
"  wwwwwwwwwwwq  ",
"  wqqqqwqqqqwq  ",
"   q   wq    q  ",
"       wq       ",
"       wq       ",
"       wq       ",
"       wq       ",
"        q       "};
