/* XPM */
const char* chb_icon_corner_all[] = {
"16 16 31 1",
" 	c None",
".	c #A5A5A5",
"+	c #3ABF00",
"@	c #3DBC00",
"#	c #3DB900",
"$	c #000000",
"%	c #41B900",
"&	c #40B600",
"*	c #3EAF00",
"=	c #3BA700",
"-	c #3FA700",
";	c #3EA600",
">	c #3DA400",
",	c #3B9E00",
"'	c #3CA100",
")	c #40A100",
"!	c #399700",
"~	c #379400",
"{	c #349400",
"]	c #369100",
"^	c #338900",
"/	c #368700",
"(	c #328600",
"_	c #318400",
":	c #338700",
"<	c #2F7E00",
"[	c #307A00",
"}	c #2E7300",
"|	c #296E00",
"1	c #2C6E00",
"2	c #296700",
"                ",
"                ",
"     ......     ",
"    .++++++.    ",
"   .@@@@#@#@$   ",
"  .%%&%&&&&&&$  ",
"  .*=**=-----$  ",
"  .;>;;>,',,)$  ",
"  .!!!!~{~]]]$  ",
"  .^^^^/((_:($  ",
"   .<<<[[[}[$   ",
"    $||1222$    ",
"     $$$$$$     ",
"                ",
"                ",
"                "};
