/* XPM */
const char * chb_icon_hide[] = {
"16 16 60 1",
" 	c None",
".	c #FEFED2",
"+	c #F7ECB6",
"@	c #F6EAAE",
"#	c #F5E8A5",
"$	c #F4E69D",
"%	c #F3E395",
"&	c #F2E18C",
"*	c #F2DF84",
"=	c #7E7135",
"-	c #F6EAAF",
";	c #F5E8A6",
">	c #F4E69E",
",	c #F3E496",
"'	c #F3E18D",
")	c #F2DF85",
"!	c #F1DD7C",
"~	c #F5E8A7",
"{	c #F4E69F",
"]	c #F4E496",
"^	c #F3E28E",
"/	c #F2DF86",
"(	c #F1DD7D",
"_	c #F0DB75",
":	c #F5E6A0",
"<	c #F4E497",
"[	c #F3E28F",
"}	c #F2E086",
"|	c #F1DE7E",
"1	c #F0DB76",
"2	c #EFD96D",
"3	c #ADAD93",
"4	c #F2E087",
"5	c #F1DE7F",
"6	c #F0DC76",
"7	c #EFD96E",
"8	c #EFD767",
"9	c #ADAD92",
"0	c #ABA988",
"a	c #AAA57F",
"b	c #A8A174",
"c	c #A79D6B",
"d	c #645D35",
"e	c #F0DC77",
"f	c #EFDA6F",
"g	c #A59960",
"h	c #EFDA70",
"i	c #EFD867",
"j	c #A49657",
"k	c #A4A491",
"l	c #A2A08A",
"m	c #A09C83",
"n	c #9E987C",
"o	c #7A7762",
"p	c #A09D85",
"q	c #9F997F",
"r	c #9D9578",
"s	c #9F9A81",
"t	c #9D967A",
"u	c #9C9273",
"                ",
"       .......  ",
"      .+@#$%&*= ",
"      .-;>,')!= ",
"      .~{]^/(_= ",
"      .:<[}|12= ",
"    3333345678= ",
"   390abcdef88= ",
"   30abcgdhi88= ",
"   3abcgjd====  ",
"  kkkcgjjd      ",
" klmnojjjd      ",
" kpqroddd       ",
" kstuo          ",
"  ooo           ",
"                "};
