/* XPM */
const char* chb_icon_info[] = {
"16 16 6 1",
" 	c None",
".	c #6ABE68",
"+	c #124C10",
"@	c #1B8719",
"#	c #000000",
"$	c #FFFFFF",
"                ",
"  ..........+   ",
"  .@@@@@@@@@+#  ",
"  .@@@@@@@@@+#  ",
"  .@#######@+#  ",
"  .@$$$$$$$@+#  ",
"  .@@@@@@@@@+#  ",
"  .@@@@@@@@@+#  ",
"  .@#######@+#  ",
"  .@$$$$$$$@+#  ",
"  .@@@@@@@@@+#  ",
"  .@@@@@@@@@+#  ",
"  .@@@@@@@@@+#  ",
"  +++++++++++#  ",
"   ###########  ",
"                "};
