/* XPM */
const char * chb_icon_keyboard[] = {
"16 16 8 1",
" 	c None",
".	c #000000",
"+	c #8DA851",
"@	c #306300",
"#	c #95AD5D",
"$	c #285B00",
"%	c #507D05",
"&	c #5F8815",
"                ",
"                ",
"        ..      ",
"       .++..    ",
"      .+@++#..  ",
"     .+@+@+@++..",
"    .+@+@+@++$@.",
"   .+@+@+@++$$.%",
"  .+@+@+@++@$.%%",
" .+@+@+@++@$.%% ",
".+++$#@++$@.%%  ",
".&&++@++$$.%%   ",
".&&&&++@$.%%    ",
" ..&&&@@.%%     ",
"   ..&@.%%      ",
"     ..%%       "};
