/* XPM */
const char * chb_icon_left[] = {
"16 16 4 1",
" 	c None",
".	c #4F4006",
"+	c #E9BA00",
"@	c #D7BD18",
"                ",
"                ",
"                ",
"                ",
"     .          ",
"    .+.         ",
"   .++.......   ",
"  .+++++++++@.  ",
"  .++@@@@@@@@.  ",
"   .@@.......   ",
"    .@.         ",
"     .          ",
"                ",
"                ",
"                ",
"                "};
