/* XPM */
const char *chb_icon_unknown[] = {
"16 16 18 1",
" 	c None",
".	c #3C9E0C",
"+	c #36940B",
"@	c #1D6A06",
"#	c #044101",
"$	c #1B6705",
"%	c #328D0A",
"&	c #3B9D0C",
"*	c #328E0A",
"=	c #1C6906",
"-	c #003A00",
";	c #267908",
">	c #37960B",
",	c #37950B",
"'	c #3C9D0C",
")	c #3A9A0C",
"!	c #247607",
"~	c #35920B",
"                ",
"                ",
"    .......     ",
"   ..+@#$%&*    ",
"  ..=--   $&;   ",
"  .+-      >,-  ",
"  .@-       '-  ",
"  .#        .-  ",
"  .$        .-  ",
"  .%       .)-  ",
"  .&$      .!-  ",
"   *&>   ..~--  ",
"    ;,'..)!--   ",
"     -------    ",
"                ",
"                "};
