/* XPM */
char * xpm_no[] = {
"17 17 12 1",
" 	c None",
".	c #000000",
"+	c #CC6699",
"@	c #993333",
"#	c #CC3333",
"$	c #CC6666",
"%	c #996666",
"&	c #CC3366",
"*	c #663333",
"=	c #CC6633",
"-	c #993366",
";	c #996633",
"                 ",
"     ..      .   ",
"    .+@.    .#.  ",
"    .@$.   .%&.  ",
"     .&@. .$#*.  ",
"     .=-..$-@.   ",
"      .&;&@@.    ",
"      .;&@$.     ",
"     .$&@$.      ",
"    .$&;&@.      ",
"   .$@@..#@.     ",
"  .$-@. .;-.     ",
"  .&@.   .&@.    ",
"   ..    .@$.    ",
"          ..     ",
"                 ",
"                 "};
