/* XPM */
char * xpm_question[] = {
"44 43 319 2",
"  	c None",
". 	c #798770",
"+ 	c #010400",
"@ 	c #080100",
"# 	c #0E0000",
"$ 	c #1B0700",
"% 	c #0F0000",
"& 	c #0A0000",
"* 	c #030000",
"= 	c #000202",
"- 	c #707A7B",
"; 	c #0A0600",
"> 	c #0A0200",
", 	c #9C8E67",
"' 	c #A7946A",
") 	c #B39E73",
"! 	c #9D8A60",
"~ 	c #93835F",
"{ 	c #766D4E",
"] 	c #070500",
"^ 	c #0E1000",
"/ 	c #000300",
"( 	c #717365",
"_ 	c #C0AE88",
": 	c #EAD7AD",
"< 	c #E9D7A9",
"[ 	c #FBE7B4",
"} 	c #F8E3AC",
"| 	c #D3BF84",
"1 	c #CDBA7F",
"2 	c #CCBB83",
"3 	c #9C905C",
"4 	c #9E956A",
"5 	c #0B0500",
"6 	c #060200",
"7 	c #585745",
"8 	c #110700",
"9 	c #120000",
"0 	c #DDBD94",
"a 	c #F4D2A5",
"b 	c #FFEEBE",
"c 	c #E1CA96",
"d 	c #E6D398",
"e 	c #DECC8A",
"f 	c #D6C279",
"g 	c #E7D283",
"h 	c #F1D886",
"i 	c #D8C173",
"j 	c #BBA460",
"k 	c #95814C",
"l 	c #796C49",
"m 	c #070000",
"n 	c #0E0F09",
"o 	c #958B68",
"p 	c #EED2A3",
"q 	c #FFEAB9",
"r 	c #FBD1A1",
"s 	c #F3D3A2",
"t 	c #9E8954",
"u 	c #76672C",
"v 	c #928541",
"w 	c #A89749",
"x 	c #D5BF69",
"y 	c #EBCC6F",
"z 	c #F4D175",
"A 	c #E6C26E",
"B 	c #CEAD6A",
"C 	c #877142",
"D 	c #0B0C04",
"E 	c #747D78",
"F 	c #110000",
"G 	c #D0B484",
"H 	c #F1CD99",
"I 	c #F7CC99",
"J 	c #F3CB98",
"K 	c #84693A",
"L 	c #110300",
"M 	c #262000",
"N 	c #0A0500",
"O 	c #110400",
"P 	c #9A8333",
"Q 	c #DAB658",
"R 	c #FDCF6F",
"S 	c #F7C66A",
"T 	c #DDAF62",
"U 	c #DABB84",
"V 	c #726240",
"W 	c #010200",
"X 	c #071109",
"Y 	c #A69C79",
"Z 	c #190400",
"` 	c #E1C08D",
" .	c #FFEBB4",
"..	c #FBD39F",
"+.	c #8B6B3A",
"@.	c #1C0A00",
"#.	c #080200",
"$.	c #888C69",
"%.	c #918A54",
"&.	c #190500",
"*.	c #DBB15F",
"=.	c #E1AB51",
"-.	c #FFD177",
";.	c #DEA959",
">.	c #D2AC6E",
",.	c #917B52",
"'.	c #111000",
").	c #000500",
"!.	c #7F8A79",
"~.	c #160900",
"{.	c #A68F63",
"].	c #F0CC98",
"^.	c #FFE4AF",
"/.	c #C6A876",
"(.	c #140100",
"_.	c #0E0900",
":.	c #868E77",
"<.	c #AB7F40",
"[.	c #F1B86B",
"}.	c #FFC979",
"|.	c #DDA256",
"1.	c #D1A568",
"2.	c #A28A5C",
"3.	c #5A6652",
"4.	c #0D0000",
"5.	c #B8A175",
"6.	c #F1D19E",
"7.	c #E2C28F",
"8.	c #968156",
"9.	c #0C0300",
"0.	c #000400",
"a.	c #190800",
"b.	c #BB915F",
"c.	c #FEC484",
"d.	c #FFC179",
"e.	c #F0B46C",
"f.	c #DCB073",
"g.	c #786030",
"h.	c #060300",
"i.	c #68715C",
"j.	c #0B0200",
"k.	c #E7D5AD",
"l.	c #F8DDAE",
"m.	c #D8C092",
"n.	c #9A906C",
"o.	c #010300",
"p.	c #000700",
"q.	c #B7D0D4",
"r.	c #190A00",
"s.	c #9C764F",
"t.	c #FBC690",
"u.	c #E2A667",
"v.	c #EAB373",
"w.	c #BC955C",
"x.	c #614B1C",
"y.	c #120F00",
"z.	c #000600",
"A.	c #838C77",
"B.	c #070200",
"C.	c #BFB28F",
"D.	c #C8B58B",
"E.	c #A99771",
"F.	c #686449",
"G.	c #C19F79",
"H.	c #F7C995",
"I.	c #F2BE84",
"J.	c #D2A167",
"K.	c #A88754",
"L.	c #040300",
"M.	c #171700",
"N.	c #0F0400",
"O.	c #040100",
"P.	c #0D1007",
"Q.	c #75755D",
"R.	c #776946",
"S.	c #D1B585",
"T.	c #DDB97F",
"U.	c #C9A164",
"V.	c #DFBA83",
"W.	c #6C5428",
"X.	c #0B0100",
"Y.	c #6C7767",
"Z.	c #030300",
"`.	c #110B00",
" +	c #030100",
".+	c #000100",
"++	c #080300",
"@+	c #AC9F6A",
"#+	c #E8D092",
"$+	c #EACD8B",
"%+	c #C7A76A",
"&+	c #A88D58",
"*+	c #120300",
"=+	c #0D1309",
"-+	c #838361",
";+	c #171300",
">+	c #8D8346",
",+	c #DDCF86",
"'+	c #CEB96A",
")+	c #BFA85C",
"!+	c #C6AF6B",
"~+	c #1A0900",
"{+	c #0D0400",
"]+	c #030400",
"^+	c #7E8889",
"/+	c #0E0100",
"(+	c #120200",
"_+	c #E0CC83",
":+	c #F0DB8C",
"<+	c #DBC478",
"[+	c #CAB36F",
"}+	c #8A7A3F",
"|+	c #0D0200",
"1+	c #3F4537",
"2+	c #796B4E",
"3+	c #745A27",
"4+	c #C6A562",
"5+	c #D6B266",
"6+	c #E4C076",
"7+	c #CDAC76",
"8+	c #B69E72",
"9+	c #241600",
"0+	c #262B0D",
"a+	c #180900",
"b+	c #866832",
"c+	c #C69F5A",
"d+	c #E8BE72",
"e+	c #C69E59",
"f+	c #C3A277",
"g+	c #81694D",
"h+	c #0E0300",
"i+	c #141400",
"j+	c #836735",
"k+	c #EDCA8A",
"l+	c #DBB66F",
"m+	c #C6A465",
"n+	c #C1A57E",
"o+	c #626550",
"p+	c #0B0000",
"q+	c #AF996A",
"r+	c #DEC084",
"s+	c #D0B371",
"t+	c #C8AE75",
"u+	c #968261",
"v+	c #121100",
"w+	c #0E0600",
"x+	c #C1AE84",
"y+	c #CCB57F",
"z+	c #CBB579",
"A+	c #BCA875",
"B+	c #675C40",
"C+	c #050200",
"D+	c #3A4032",
"E+	c #140D00",
"F+	c #AFA17C",
"G+	c #D0BE8C",
"H+	c #CEBF88",
"I+	c #A89D6F",
"J+	c #161100",
"K+	c #000200",
"L+	c #576357",
"M+	c #060000",
"N+	c #8C7F5D",
"O+	c #8B7E52",
"P+	c #948A59",
"Q+	c #5E5B32",
"R+	c #150F01",
"S+	c #221700",
"T+	c #4B3F17",
"U+	c #0A0300",
"V+	c #040400",
"W+	c #64706C",
"X+	c #0E0500",
"Y+	c #090500",
"Z+	c #6D7568",
"`+	c #211400",
" @	c #221500",
".@	c #070300",
"+@	c #0D0F01",
"@@	c #717C76",
"#@	c #D5C7A2",
"$@	c #D9C998",
"%@	c #E3D6A2",
"&@	c #999065",
"*@	c #161B14",
"=@	c #717E75",
"-@	c #080000",
";@	c #E6D5AA",
">@	c #EAD5A0",
",@	c #F6E3A9",
"'@	c #CABC8D",
")@	c #191100",
"!@	c #555D52",
"~@	c #F6E1B4",
"{@	c #E8CF96",
"]@	c #CEB678",
"^@	c #A08C57",
"/@	c #75796B",
"(@	c #120700",
"_@	c #EFD9A8",
":@	c #CBAE72",
"<@	c #BDA160",
"[@	c #BFA66E",
"}@	c #291600",
"|@	c #666759",
"1@	c #B0A176",
"2@	c #CBB784",
"3@	c #C0AB74",
"4@	c #604E1E",
"5@	c #737464",
"6@	c #0B0A00",
"7@	c #171A07",
"8@	c #626957",
"9@	c #828B78",
"0@	c #000800",
"a@	c #091200",
"b@	c #69725F",
"c@	c #838C79",
"d@	c #7A8370",
"                                                                                        ",
"                                                                                        ",
"                                                                                        ",
"                                                                                        ",
"                                . + @ # $ % & * = -                                     ",
"                              + ; > , ' ) ! ~ { ] ^ / (                                 ",
"                            @ # _ : < [ } | 1 2 3 4 5 6 7                               ",
"                          8 9 0 a b c d e f g h i j k l m n                             ",
"                        o 9 p q r s t u v w x y z A B C 8 D E                           ",
"                        F G H I J K L M N O P Q R S T U V W X                           ",
"                      Y Z `  ...+.@.#.$.  %.&.*.=.-.;.>.,.'.).!.                        ",
"                      ~.{.].^./.(._.:.      9 <.[.}.|.1.2.6 ).3.                        ",
"                      4.5.6.7.8.9.0.        a.b.c.d.e.f.g.h.).i.                        ",
"                      j.k.l.m.n.o.p.  q.    r.s.t.u.v.w.x.y.z.A.                        ",
"                      B.C.D.E.F.0.z.        4.G.H.I.J.K.a.L.z.                          ",
"                      M.B.4.N.O.P.0.      Q.R.S.T.U.V.W.X./ Y.                          ",
"                        Z.B.`. +.+        ++@+#+$+%+&+*+6 =+                            ",
"                                      -+;+>+,+'+)+!+~+{+]+^+                            ",
"                                      /+(+_+:+<+[+}+|+L.1+                              ",
"                                    2+3+4+5+6+7+8+9+++0+                                ",
"                                    a+b+c+d+e+f+g+h+i+                                  ",
"                                    4.j+k+l+m+n+% m o+                                  ",
"                                    p+q+r+s+t+u+& v+                                    ",
"                                    w+x+y+z+A+B+C+D+                                    ",
"                                    E+F+G+H+I+J+K+L+                                    ",
"                                    M+N+O+P+Q+/ 0.                                      ",
"                                    R+S+T+U+V+0.W+                                      ",
"                                      X+j.Y+V+Z+                                        ",
"                                                                                        ",
"                                      `+ @|+.@+@@@                                      ",
"                                    m #@$@%@&@O.*@=@                                    ",
"                                    -@;@>@,@'@)@V+!@                                    ",
"                                    & ~@{@]@^@4.#./@                                    ",
"                                    (@_@:@<@[@}@-@|@                                    ",
"                                    B.1@2@3@4@4.m 5@                                    ",
"                                      Z.6@L.V+o.7@8@                                    ",
"                                9@      ).0@z.a@b@                                      ",
"                                            c@d@                                        ",
"                                                                                        ",
"                                                                                        ",
"                                                                                        ",
"                                                                                        ",
"                                                                                        "};
